<svg width="136" height="136" viewBox="0 0 136 136" fill="none" xmlns="http://www.w3.org/2000/svg">
<path d="M68.6514 111.694L43.5858 104.731L38 42.0373H99.3779L93.7862 104.721L68.6514 111.694Z" fill="#264DE4"/>
<path d="M88.9991 100.729L93.7775 47.1634H68.6889V106.364L88.9991 100.729Z" fill="#2965F1"/>
<path d="M50.8052 70.4155L51.4939 78.1044H68.6889V70.4155H50.8052Z" fill="#EBEBEB"/>
<path d="M49.4215 54.8526L50.1199 62.5417H68.6889V54.8526H49.4215Z" fill="#EBEBEB"/>
<path d="M68.6889 90.3848L68.6553 90.3938L60.0977 88.0815L59.5506 81.9491H51.8372L52.9137 94.0221L68.6536 98.3945L68.6889 98.3847V90.3848Z" fill="#EBEBEB"/>
<path d="M52.4449 25H61.7513V28.8944H56.3367V32.7889H61.7513V36.6833H52.4449V25Z" fill="white"/>
<path d="M63.6127 25H72.9192V28.3865H67.5045V29.0638H72.9192V36.8527H63.6127V33.2969H69.0273V32.6196H63.6127V25Z" fill="white"/>
<path d="M74.7805 25H84.087V28.3865H78.6723V29.0638H84.087V36.8527H74.7805V33.2969H80.1951V32.6196H74.7805V25Z" fill="white"/>
<path d="M86.5234 70.4154L87.9106 54.8526H68.6624V62.5417H79.4897L78.7905 70.4154H68.6624V78.1044H78.1242L77.2323 88.0766L68.6624 90.3912V98.3907L84.4147 94.022L84.5303 92.723L86.3359 72.4802L86.5234 70.4154Z" fill="white"/>
</svg>
