<svg width="136" height="136" viewBox="0 0 136 136" fill="none" xmlns="http://www.w3.org/2000/svg">
<path d="M24 25H111V112H24V25Z" fill="#F7DF1E"/>
<path d="M46.8755 97.7035L53.5333 93.6743C54.8178 95.9517 55.9862 97.8785 58.7888 97.8785C61.4753 97.8785 63.1691 96.8276 63.1691 92.74V64.9414H71.3449V92.8556C71.3449 101.324 66.3812 105.178 59.1393 105.178C52.599 105.178 48.8025 101.791 46.8753 97.7029" fill="black"/>
<path d="M75.7857 96.8275L82.4427 92.9731C84.1951 95.835 86.4727 97.9372 90.5021 97.9372C93.8897 97.9372 96.0499 96.2435 96.0499 93.9074C96.0499 91.1042 93.8309 90.1113 90.0932 88.4767L88.0498 87.6001C82.1511 85.0894 78.2381 81.9358 78.2381 75.2781C78.2381 69.1461 82.91 64.474 90.2103 64.474C95.4079 64.474 99.1455 66.2845 101.832 71.015L95.4659 75.1027C94.0643 72.5918 92.5463 71.5991 90.2104 71.5991C87.816 71.5991 86.2975 73.1175 86.2975 75.1027C86.2975 77.5556 87.816 78.5486 91.3196 80.0671L93.3634 80.9431C100.313 83.9216 104.226 86.9581 104.226 93.7906C104.226 101.149 98.4445 105.179 90.6775 105.179C83.0855 105.179 78.1798 101.558 75.7858 96.8275" fill="black"/>
</svg>
