<svg width="136" height="136" viewBox="0 0 136 136" fill="none" xmlns="http://www.w3.org/2000/svg">
<path fill-rule="evenodd" clip-rule="evenodd" d="M52.1094 95.6672C52.0498 95.5612 51.9967 95.4516 51.9504 95.3391C51.6295 94.5928 51.5307 93.7689 51.666 92.9672H32.6808L60.8949 43.0565L70.1574 59.4243L72.8433 54.6468L64.7689 40.3482C64.543 39.936 63.1792 37.7324 60.828 37.7324C59.7654 37.7324 58.2425 38.195 57.0042 40.3818L28.422 90.8981C28.1793 91.3355 26.9995 93.6317 28.1709 95.6672C28.7064 96.5924 29.8444 97.6942 32.3545 97.6942H56.293C53.7996 97.6942 52.6449 96.6092 52.1094 95.6672Z" fill="#01C58E"/>
<path fill-rule="evenodd" clip-rule="evenodd" d="M107.149 90.8982L83.662 49.3059C83.4193 48.8685 82.0638 46.6564 79.7043 46.6564C78.6417 46.6564 77.1188 47.1106 75.8805 49.2975L72.8432 54.6469L75.5458 59.4243L79.7294 51.9806L102.965 92.9673H94.1293C94.2423 93.6448 94.1789 94.3403 93.9452 94.9859C93.896 95.1284 93.8344 95.2663 93.7611 95.398L93.6858 95.5494C92.4977 97.5849 89.929 97.6942 89.4269 97.6942H103.249C103.76 97.6942 106.32 97.5849 107.508 95.5494C108.036 94.6242 108.412 93.0682 107.149 90.8982Z" fill="#108775"/>
<path fill-rule="evenodd" clip-rule="evenodd" d="M93.6858 95.5494L93.7611 95.398C93.8344 95.2663 93.896 95.1284 93.9452 94.9859C94.1789 94.3402 94.2423 93.6448 94.1293 92.9672C93.9991 92.2365 93.7383 91.5355 93.3595 90.8981L75.5625 59.4243L72.8432 54.6468L70.1406 59.4243L52.352 90.8981C52.0066 91.543 51.7745 92.243 51.6659 92.9672C51.5227 93.7664 51.6128 94.5902 51.9253 95.3391C51.9716 95.4516 52.0247 95.5612 52.0843 95.6672C52.6198 96.5924 53.7577 97.6942 56.2679 97.6942H89.4018C89.929 97.6942 92.4977 97.5849 93.6858 95.5494ZM72.8432 64.2017L89.109 92.9672H56.5858L72.8432 64.2017Z" fill="#2F495E"/>
</svg>
