<svg width="136" height="136" viewBox="0 0 136 136" fill="none" xmlns="http://www.w3.org/2000/svg">
<path fill-rule="evenodd" clip-rule="evenodd" d="M46.2656 108.459C46.1869 108.319 46.1169 108.174 46.0558 108.026C45.6323 107.041 45.5018 105.954 45.6804 104.896H20.625L57.8602 39.0265L70.0842 60.6276L73.6289 54.3227L62.9729 35.4522C62.6747 34.9083 60.8748 32 57.7719 32C56.3695 32 54.3597 32.6105 52.7255 35.4966L15.0044 102.165C14.6841 102.742 13.1272 105.772 14.6731 108.459C15.3798 109.68 16.8816 111.134 20.1943 111.134H51.7868C48.4962 111.134 46.9723 109.702 46.2656 108.459Z" fill="#01C58E"/>
<path fill-rule="evenodd" clip-rule="evenodd" d="M118.903 102.165L87.9067 47.274C87.5865 46.6968 85.7976 43.7774 82.6836 43.7774C81.2812 43.7774 79.2715 44.3768 77.6372 47.2629L73.6288 54.3227L77.1955 60.6276L82.7167 50.8039L113.382 104.896H101.721C101.87 105.79 101.786 106.708 101.478 107.56C101.413 107.748 101.332 107.93 101.235 108.104L101.136 108.303C99.5676 110.99 96.1775 111.134 95.515 111.134H113.757C114.431 111.134 117.81 110.99 119.378 108.303C120.073 107.082 120.57 105.029 118.903 102.165Z" fill="#108775"/>
<path fill-rule="evenodd" clip-rule="evenodd" d="M101.136 108.303L101.235 108.104C101.332 107.93 101.413 107.748 101.478 107.56C101.786 106.708 101.87 105.79 101.721 104.896C101.549 103.931 101.205 103.006 100.705 102.165L77.2176 60.6276L73.6288 54.3227L70.0621 60.6276L46.5858 102.165C46.13 103.016 45.8236 103.94 45.6803 104.896C45.4914 105.95 45.6103 107.038 46.0226 108.026C46.0837 108.174 46.1538 108.319 46.2324 108.459C46.9391 109.68 48.4409 111.134 51.7537 111.134H95.4819C96.1775 111.134 99.5676 110.99 101.136 108.303ZM73.6288 66.9326L95.0954 104.896H52.1733L73.6288 66.9326Z" fill="#2F495E"/>
</svg>
