<svg width="136" height="136" viewBox="0 0 136 136" fill="none" xmlns="http://www.w3.org/2000/svg">
<path d="M54.2526 108C61.5652 108 67.5 102.027 67.5 94.6667V81.3333H54.2526C46.9401 81.3333 41.0053 87.3067 41.0053 94.6667C41.0053 102.027 46.9401 108 54.2526 108Z" fill="#0ACF83"/>
<path d="M41.0053 68C41.0053 60.64 46.9401 54.6667 54.2526 54.6667H67.5V81.3333H54.2526C46.9401 81.3333 41.0053 75.36 41.0053 68Z" fill="#A259FF"/>
<path d="M41.0051 41.3333C41.0051 33.9733 46.94 28 54.2525 28H67.4999V54.6667H54.2525C46.94 54.6667 41.0051 48.6933 41.0051 41.3333Z" fill="#F24E1E"/>
<path d="M67.5 28H80.7474C88.0599 28 93.9947 33.9733 93.9947 41.3333C93.9947 48.6933 88.0599 54.6667 80.7474 54.6667H67.5V28Z" fill="#FF7262"/>
<path d="M93.9947 68C93.9947 75.36 88.0599 81.3333 80.7474 81.3333C73.4348 81.3333 67.5 75.36 67.5 68C67.5 60.64 73.4348 54.6667 80.7474 54.6667C88.0599 54.6667 93.9947 60.64 93.9947 68Z" fill="#1ABCFE"/>
</svg>
