<svg width="136" height="136" viewBox="0 0 136 136" fill="none" xmlns="http://www.w3.org/2000/svg">
<path d="M68 107C89.5391 107 107 89.5391 107 68C107 46.4609 89.5391 29 68 29C46.4609 29 29 46.4609 29 68C29 89.5391 46.4609 107 68 107Z" fill="#261300"/>
<path d="M82.311 90.6198L66.2367 38.1848C65.2911 35.1762 61.423 33.7149 57.4689 33.7149C53.5148 33.7149 49.6466 35.1762 48.701 38.1848L33.8588 86.8632C35.9776 90.6931 38.7234 94.1283 41.958 97.0303C43.7154 96.8679 45.0716 96.142 45.5206 94.5741L48.4431 83.8291H66.5806L69.5031 94.5741C70.0188 96.3792 71.738 97.0669 73.887 97.0669C77.5833 97.0669 82.4828 94.7459 82.4828 91.5654C82.483 91.3075 82.3971 90.9637 82.311 90.6198ZM51.1938 73.5139L57.4689 50.4768L63.7439 73.5139H51.1938Z" fill="#FF7C00"/>
<path d="M93.3122 35.9497C92.4223 35.9497 91.5755 36.0929 90.7987 36.3541C88.1212 37.2486 86.2635 39.5217 86.2635 42.0528C86.2635 45.3192 89.3581 48.2419 93.3122 48.2419C95.9753 48.2419 98.2723 46.8554 99.4455 44.9261C99.9755 44.0538 100.275 43.07 100.275 42.0529C100.275 38.7864 97.1803 35.9497 93.3122 35.9497ZM93.3122 56.1502C89.444 56.1502 86.6933 57.7835 86.6933 60.1904V92.9408C86.6933 95.0038 89.444 97.0668 93.3122 97.0668C93.5558 97.0668 93.796 97.0572 94.0317 97.0397C96.2777 95.026 98.2883 92.7561 100.017 90.2744V60.1902C100.017 57.7833 97.0085 56.1502 93.3122 56.1502Z" fill="#FF7C00"/>
</svg>
