<svg width="136" height="136" viewBox="0 0 136 136" fill="none" xmlns="http://www.w3.org/2000/svg">
<path d="M68 107C89.5391 107 107 89.5391 107 68C107 46.4609 89.5391 29 68 29C46.4609 29 29 46.4609 29 68C29 89.5391 46.4609 107 68 107Z" fill="#0D0A22"/>
<path d="M53.6309 33.7149H35.8215C32.8113 33.7149 30.8327 35.6076 30.8327 37.7598V79.8447C32.8192 86.0879 36.3373 91.6498 40.9456 96.0894C42.8479 95.4622 44.2534 94.2572 44.2534 92.476V73.8928H52.7697C64.6432 73.8928 73.9348 68.3866 73.9348 53.9327V53.503C73.9348 39.049 64.9871 33.7149 53.6309 33.7149ZM60.5124 54.9659C60.5124 60.8159 57.5882 63.5682 52.7697 63.5682H44.2534V45.4164H52.7697C57.5882 45.4164 60.5124 48.1686 60.5124 54.0186V54.9659Z" fill="#2BBBFA"/>
<path d="M84.8644 67.7849C84.8644 66.4939 86.3274 65.031 89.7673 65.031C94.4139 65.031 97.0803 67.6129 99.4043 67.6129C102.5 67.6129 104.221 63.0523 104.221 61.3314C104.221 57.718 97.0803 55.1376 89.5955 55.1376C77.3798 55.1376 73.4223 62.0206 73.4223 68.3865C73.4223 82.8404 93.5527 78.7955 93.5527 84.7331C93.5527 85.9365 92.7791 87.5714 88.2201 87.5714C81.3371 87.5714 79.3584 83.7001 76.6045 83.7001C73.9382 83.7001 72.2174 87.4855 72.2174 89.5501C72.2174 93.7653 79.5304 97.4646 88.5641 97.4646C90.6111 97.4646 92.4816 97.2768 94.1673 96.9171C98.9332 92.6049 102.626 87.1289 104.802 80.9399C102.063 69.5837 84.8644 72.2182 84.8644 67.7849Z" fill="#2BBBFA"/>
</svg>
