<svg width="136" height="136" viewBox="0 0 136 136" fill="none" xmlns="http://www.w3.org/2000/svg">
<path d="M68 107C89.5391 107 107 89.5391 107 68C107 46.4609 89.5391 29 68 29C46.4609 29 29 46.4609 29 68C29 89.5391 46.4609 107 68 107Z" fill="#2F001E"/>
<path d="M71.9195 85.8459L58.8394 65.6598L71.391 45.547C71.9195 44.7161 72.1471 43.9599 72.1471 43.2038C72.1471 40.028 67.8364 37.6085 64.5095 37.6085C62.8461 37.6085 61.7126 38.2134 60.9565 39.5743L50.9009 57.1149L41.0061 39.853L40.8453 39.5743C40.0893 38.2133 38.9543 37.6085 37.2907 37.6085C33.9638 37.6085 29.6546 40.028 29.6546 43.2038C29.6546 43.9599 29.8822 44.7161 30.4107 45.547L33.3014 50.1776L42.9623 65.6598L31.8881 82.7514C33.5118 86.7247 35.7723 90.37 38.5436 93.5601C39.1039 93.3643 39.5655 93.0412 39.8617 92.5764L50.9011 73.8246L61.9389 92.5764C62.3925 93.4073 63.5275 93.7862 64.7373 93.7862C67.9878 93.7862 72.6009 91.2154 72.6009 87.9633C72.6009 87.2834 72.3732 86.6021 71.9195 85.8459Z" fill="#FF1AC4"/>
<path d="M101.052 36.7776C97.9238 36.7776 95.396 38.0479 95.1063 39.9613C95.0887 40.0823 95.0791 40.2049 95.0791 40.3306V62.6354C93.492 59.6857 90.0887 56.8888 85.4772 56.8888C78.0672 56.8888 72.0946 64.0712 72.0946 72.7658V78.0587C72.0946 86.4508 78.2183 94.0884 85.2495 94.0884C90.0887 94.0884 94.3229 91.1387 95.8352 88.0395V89.7029C95.8352 90.8507 96.7744 91.9999 98.1911 92.6876C102.904 86.9331 106.002 79.808 106.798 72.0016V40.3306C106.798 38.2135 104.379 36.7776 101.052 36.7776ZM95.0793 79.0423C95.0793 80.3269 92.5085 83.8799 89.2579 83.8799C86.2334 83.8799 83.8138 81.0082 83.8138 78.0585V72.7656C83.8138 69.8924 86.2333 67.0955 89.3327 67.0955C92.0548 67.0955 95.0793 69.2127 95.0793 72.7656V79.0423Z" fill="#FF1AC4"/>
</svg>
