<svg width="136" height="136" viewBox="0 0 136 136" fill="none" xmlns="http://www.w3.org/2000/svg">
<circle cx="67.5" cy="68.5" r="46.5" fill="black"/>
<path d="M60.3266 77.2446C60.3266 78.2418 60.1741 79.2643 59.8629 80.3123C59.5517 81.3603 59.0182 82.3066 58.256 83.1577C57.4939 84.0088 56.592 84.428 55.544 84.428C54.496 84.428 53.5941 84.0025 52.8319 83.1577C52.0698 82.313 51.5363 81.3666 51.225 80.3123C50.9138 79.2643 50.755 78.2418 50.755 77.2446C50.755 76.2474 50.9138 75.2312 51.225 74.1769C51.5363 73.1289 52.0698 72.1762 52.8319 71.3314C53.5941 70.4867 54.496 70.0612 55.544 70.0612C56.592 70.0612 57.4939 70.4804 58.256 71.3314C59.0182 72.1825 59.5517 73.1289 59.8629 74.1769C60.1741 75.2248 60.3266 76.2474 60.3266 77.2446ZM84.2713 77.2446C84.2713 78.2418 84.1189 79.2643 83.8076 80.3123C83.4964 81.3603 82.9629 82.3066 82.2007 83.1577C81.4386 84.0088 80.5367 84.428 79.4887 84.428C78.4407 84.428 77.5388 84.0025 76.7767 83.1577C76.0145 82.313 75.481 81.3666 75.1698 80.3123C74.8585 79.258 74.7061 78.2418 74.7061 77.2446C74.7061 76.2474 74.8649 75.2312 75.1698 74.1769C75.481 73.1289 76.0145 72.1762 76.7767 71.3314C77.5388 70.4867 78.4407 70.0612 79.4887 70.0612C80.5367 70.0612 81.4386 70.4804 82.2007 71.3314C82.9629 72.1825 83.4964 73.1289 83.8076 74.1769C84.1125 75.2248 84.2713 76.2474 84.2713 77.2446ZM90.2543 77.2446C90.2543 74.2531 89.3969 71.7062 87.6756 69.6166C85.9544 67.5206 83.6235 66.4726 80.6828 66.4726C79.6602 66.4726 77.2276 66.733 73.3914 67.2602C71.6193 67.5333 69.6631 67.6731 67.5163 67.6731C65.3696 67.6731 63.4134 67.5333 61.6413 67.2602C57.8495 66.7394 55.417 66.4726 54.3499 66.4726C51.4092 66.4726 49.0783 67.5206 47.3571 69.6166C45.6358 71.7125 44.7784 74.2531 44.7784 77.2446C44.7784 79.4358 45.1785 81.3539 45.9725 82.9862C46.7727 84.6185 47.7826 85.9015 49.0021 86.8352C50.2215 87.7688 51.7459 88.5183 53.5624 89.0836C55.3789 89.6425 57.1255 90.0109 58.8022 90.1887C60.4727 90.3602 62.3336 90.4491 64.3724 90.4491H70.6539C72.6991 90.4491 74.5537 90.3602 76.2241 90.1887C77.8945 90.0172 79.6411 89.6488 81.464 89.0836C83.2868 88.5246 84.8048 87.7752 86.0243 86.8352C87.2437 85.9015 88.2536 84.6185 89.0539 82.9862C89.8542 81.3539 90.2543 79.4358 90.2543 77.2446ZM98.6318 70.6582C98.6318 75.8219 97.8696 79.9439 96.3516 83.037C95.4053 84.9552 94.0905 86.6129 92.4074 88.0102C90.7243 89.4075 88.965 90.4809 87.1358 91.2303C85.3002 91.9798 83.1852 92.5705 80.778 93.0087C78.3709 93.447 76.2368 93.7201 74.3631 93.8344C72.4895 93.9487 70.4062 94.0059 68.1197 93.9995C66.1762 93.9995 64.4042 93.9614 62.81 93.8852C61.2158 93.809 59.3739 93.6566 57.2906 93.4152C55.2074 93.1802 53.3083 92.8055 51.5871 92.291C49.8659 91.7766 48.1573 91.1351 46.4615 90.3665C44.7657 89.5917 43.2541 88.5818 41.933 87.3369C40.6119 86.0921 39.5322 84.6567 38.7065 83.037C37.1631 79.9693 36.3882 75.8473 36.3882 70.6582C36.3882 64.7514 38.084 59.81 41.4757 55.8468C40.8024 53.8016 40.4658 51.6803 40.4658 49.489C40.4658 46.5928 41.1009 43.8808 42.3712 41.3339C45.0642 41.3339 47.4333 41.8293 49.4784 42.8137C51.5236 43.7982 53.8799 45.3416 56.5475 47.4312C60.2123 46.5611 64.0675 46.1228 68.107 46.1228C71.7972 46.1228 75.2904 46.5229 78.5805 47.3169C81.1972 45.2717 83.5282 43.7664 85.5733 42.7883C87.6185 41.8166 89.9748 41.3275 92.6424 41.3275C93.9127 43.8744 94.5478 46.5865 94.5478 49.4827C94.5478 51.6485 94.2112 53.7445 93.538 55.7642C96.9359 59.7592 98.6318 64.7197 98.6318 70.6582Z" fill="white"/>
</svg>
