<svg width="136" height="136" viewBox="0 0 136 136" fill="none" xmlns="http://www.w3.org/2000/svg">
<circle cx="67.5" cy="68.5" r="46.5" fill="black"/>
<path d="M88.082 68.5C88.082 79.8671 78.8671 89.082 67.5 89.082C56.1329 89.082 46.918 79.8671 46.918 68.5C46.918 57.1329 56.1329 47.918 67.5 47.918C78.8671 47.918 88.082 57.1329 88.082 68.5ZM53.8941 68.5C53.8941 76.0143 59.9857 82.1059 67.5 82.1059C75.0143 82.1059 81.1059 76.0143 81.1059 68.5C81.1059 60.9857 75.0143 54.8941 67.5 54.8941C59.9857 54.8941 53.8941 60.9857 53.8941 68.5Z" fill="white"/>
<circle cx="88.082" cy="47.918" r="4.57377" fill="white"/>
</svg>
