<svg width="136" height="136" viewBox="0 0 136 136" fill="black" xmlns="http://www.w3.org/2000/svg">
    <path fill-rule="evenodd" clip-rule="evenodd"
        d="M21 68C21 42.0427 42.0427 21 68 21C93.9573 21 115 42.0427 115 68C115 93.9573 93.9573 115 68 115C42.0427 115 21 93.9573 21 68ZM54.2143 59.9274H43.5631V91.9301H54.2143V59.9274ZM54.916 50.0278C54.8469 46.8899 52.603 44.5 48.9591 44.5C45.3155 44.5 42.9333 46.8899 42.9333 50.0278C42.9333 53.1006 45.2451 55.5593 48.8209 55.5593H48.889C52.603 55.5593 54.916 53.1006 54.916 50.0278ZM92.6268 73.5807C92.6268 63.751 87.3722 59.1759 80.3632 59.1759C74.7081 59.1759 72.1763 62.2821 70.7626 64.4611V59.9283H60.1101C60.2505 62.9312 60.1101 91.9308 60.1101 91.9308H70.7626V74.0579C70.7626 73.1015 70.8318 72.1474 71.1134 71.4625C71.8832 69.5518 73.6359 67.5735 76.5785 67.5735C80.4342 67.5735 81.9756 70.508 81.9756 74.8085V91.9301H92.6264L92.6268 73.5807Z"
        fill="white" />
</svg>