<svg width="136" height="136" viewBox="0 0 136 136" fill="none" xmlns="http://www.w3.org/2000/svg">
<circle cx="68" cy="68" r="47" fill="black"/>
<path d="M68 37C73.6139 37 78.796 38.3881 83.5463 41.1642C88.2965 43.9403 92.0597 47.7035 94.8358 52.4537C97.6119 57.204 99 62.3861 99 68C99 76.5134 96.995 82.6517 92.9851 86.4149C91.8129 87.4637 90.4557 88.2965 88.9134 88.9134C87.3711 89.4687 85.798 89.7463 84.194 89.7463C82.7134 89.7463 81.3254 89.4687 80.0299 88.9134C78.6109 88.2965 77.5005 87.402 76.6985 86.2299C75.8965 84.996 75.4955 83.5771 75.4955 81.9731V78.7343C72.8428 80.8935 69.7891 81.9731 66.3343 81.9731C63.805 81.9731 61.4299 81.3562 59.209 80.1224C57.0498 78.8269 55.3224 77.0995 54.0269 74.9403C52.793 72.7811 52.1761 70.406 52.1761 67.8149C52.1761 65.2856 52.793 62.9413 54.0269 60.7821C55.3224 58.5612 57.0498 56.8338 59.209 55.6C61.4299 54.3045 63.805 53.6567 66.3343 53.6567C69.7274 53.6567 72.7811 54.7672 75.4955 56.9881V53.6567H81.7881V81.9731C81.7881 82.2816 81.8189 82.5284 81.8806 82.7134C82.004 82.8368 82.2199 82.9602 82.5284 83.0836C83.0219 83.2687 83.5771 83.3612 84.194 83.3612C86.0448 83.3612 87.5254 82.8368 88.6358 81.7881C91.3503 79.197 92.7075 74.601 92.7075 68C92.7075 63.5582 91.597 59.4557 89.3761 55.6925C87.1552 51.9294 84.1323 48.9373 80.3075 46.7164C76.5443 44.4955 72.4418 43.3851 68 43.3851C63.5582 43.3851 59.4557 44.4955 55.6925 46.7164C51.9294 48.9373 48.9373 51.9294 46.7164 55.6925C44.4955 59.4557 43.3851 63.5582 43.3851 68C43.3851 72.4418 44.4955 76.5751 46.7164 80.4C48.9373 84.1632 51.9294 87.1552 55.6925 89.3761C59.4557 91.597 63.5582 92.7075 68 92.7075C70.0975 92.7075 72.1642 92.4298 74.2 91.8746L75.7731 98.0746C73.3672 98.6915 70.7761 99 68 99C62.3861 99 57.204 97.6119 52.4537 94.8358C47.7652 92.0597 44.002 88.2965 41.1642 83.5463C38.3881 78.796 37 73.6139 37 68C37 62.3861 38.3881 57.204 41.1642 52.4537C44.002 47.7035 47.7652 43.9403 52.4537 41.1642C57.204 38.3881 62.3861 37 68 37ZM66.3343 75.6806C68.4935 75.6806 70.3443 74.9095 71.8866 73.3672C73.4289 71.8249 74.2 69.9741 74.2 67.8149C74.2 65.6557 73.4289 63.8358 71.8866 62.3552C70.3443 60.8129 68.4935 60.0418 66.3343 60.0418C64.2368 60.0418 62.4169 60.8129 60.8746 62.3552C59.3323 63.8358 58.5612 65.6557 58.5612 67.8149C58.5612 69.9741 59.3015 71.8249 60.7821 73.3672C62.3244 74.9095 64.1751 75.6806 66.3343 75.6806Z" fill="white"/>
</svg>
