<svg width="136" height="136" viewBox="0 0 136 136" fill="none" xmlns="http://www.w3.org/2000/svg">
    <circle cx="67.5" cy="68.9431" r="46.5" fill="white" />
    <path fill-rule="evenodd" clip-rule="evenodd"
        d="M93.164 50.5861L98 45.9649V44.9514H81.2503L69.3145 74.6615L55.7373 44.9514H38.1779V45.9649L43.8071 52.7618C44.0792 53.0095 44.29 53.317 44.4229 53.6602C44.5558 54.0034 44.607 54.3727 44.5727 54.7391V81.4583C44.6651 81.9375 44.6407 82.432 44.5017 82.8998C44.3627 83.3676 44.1131 83.7952 43.774 84.1462L37.4123 91.8573V92.8543H55.4509V91.8408L49.0892 84.1297C48.7496 83.785 48.4939 83.3667 48.342 82.9072C48.1902 82.4478 48.1462 81.9595 48.2134 81.4803V58.3468L64.0434 92.8268H65.8885L79.4987 58.3468V85.8151C79.4987 86.5422 79.4987 86.6909 79.025 87.1645L74.1285 91.9014V92.9149H97.8843V91.9069L93.164 87.2802C92.958 87.1281 92.7977 86.9223 92.7005 86.6853C92.6034 86.4483 92.5732 86.1892 92.6132 85.9363V51.9356C92.5728 51.6818 92.6027 51.4217 92.6999 51.1838C92.797 50.9458 92.9575 50.7391 93.164 50.5861Z"
        fill="black" />
</svg>